<mxfile host="app.diagrams.net" modified="2024-04-10T20:02:20.455Z" agent="Mozilla/5.0 (Macintosh; Intel Mac OS X 10_15_7) AppleWebKit/537.36 (KHTML, like Gecko) Chrome/123.0.0.0 Safari/537.36" etag="ujOmhza5L2wg82xOA69h" version="24.2.3" type="device">
  <diagram name="Page-1" id="pRUnBnFPxpvmqkvnZVGJ">
    <mxGraphModel dx="2016" dy="694" grid="1" gridSize="10" guides="1" tooltips="1" connect="1" arrows="1" fold="1" page="1" pageScale="1" pageWidth="850" pageHeight="1100" background="#000000" math="0" shadow="0">
      <root>
        <mxCell id="0" />
        <mxCell id="1" parent="0" />
        <mxCell id="E3p79ck7lgWa1YziOl5S-13" style="edgeStyle=orthogonalEdgeStyle;rounded=0;orthogonalLoop=1;jettySize=auto;html=1;exitX=1;exitY=0.5;exitDx=0;exitDy=0;entryX=0;entryY=0.5;entryDx=0;entryDy=0;fillColor=#d5e8d4;strokeColor=#82b366;strokeWidth=3;" parent="1" source="E3p79ck7lgWa1YziOl5S-1" target="E3p79ck7lgWa1YziOl5S-4" edge="1">
          <mxGeometry relative="1" as="geometry" />
        </mxCell>
        <mxCell id="E3p79ck7lgWa1YziOl5S-1" value="Public CDC Data" style="whiteSpace=wrap;html=1;aspect=fixed;fillColor=#CC0066;fontColor=#FFFFFF;" parent="1" vertex="1">
          <mxGeometry x="-110" y="200" width="80" height="80" as="geometry" />
        </mxCell>
        <mxCell id="E3p79ck7lgWa1YziOl5S-3" value="Google Cloud" style="swimlane;whiteSpace=wrap;html=1;strokeColor=#FFFFFF;strokeWidth=3;fillColor=#007FFF;gradientColor=default;fontColor=#FFFFFF;" parent="1" vertex="1">
          <mxGeometry x="20" y="90" width="820" height="570" as="geometry" />
        </mxCell>
        <mxCell id="E3p79ck7lgWa1YziOl5S-6" value="Dataproc" style="swimlane;whiteSpace=wrap;html=1;strokeColor=#FFFFFF;strokeWidth=2;fillColor=#3399FF;gradientColor=default;fontColor=#FFFFFF;" parent="E3p79ck7lgWa1YziOl5S-3" vertex="1">
          <mxGeometry x="130" y="50" width="355" height="330" as="geometry" />
        </mxCell>
        <mxCell id="E3p79ck7lgWa1YziOl5S-4" value="Cluster" style="whiteSpace=wrap;html=1;aspect=fixed;fillColor=#00FF00;fontColor=#FFFFFF;" parent="E3p79ck7lgWa1YziOl5S-6" vertex="1">
          <mxGeometry x="230" y="60" width="80" height="80" as="geometry" />
        </mxCell>
        <mxCell id="E3p79ck7lgWa1YziOl5S-24" value="Workflow" style="whiteSpace=wrap;html=1;aspect=fixed;fillColor=#FF8000;fontColor=#FFFFFF;" parent="E3p79ck7lgWa1YziOl5S-6" vertex="1">
          <mxGeometry x="60" y="225" width="80" height="80" as="geometry" />
        </mxCell>
        <mxCell id="E3p79ck7lgWa1YziOl5S-22" value="Creates PySpark Job" style="endArrow=classic;html=1;rounded=0;entryX=0;entryY=1;entryDx=0;entryDy=0;exitX=1;exitY=0;exitDx=0;exitDy=0;fillColor=#ffe6cc;strokeColor=#d79b00;strokeWidth=2;fontColor=#FFFFFF;labelBackgroundColor=none;" parent="E3p79ck7lgWa1YziOl5S-6" source="E3p79ck7lgWa1YziOl5S-24" target="E3p79ck7lgWa1YziOl5S-4" edge="1">
          <mxGeometry x="-0.5073" y="47" width="50" height="50" relative="1" as="geometry">
            <mxPoint x="150" y="260" as="sourcePoint" />
            <mxPoint x="180" y="200" as="targetPoint" />
            <mxPoint as="offset" />
          </mxGeometry>
        </mxCell>
        <mxCell id="E3p79ck7lgWa1YziOl5S-7" value="Cloud Storage" style="swimlane;whiteSpace=wrap;html=1;strokeColor=#FFFFFF;strokeWidth=2;fillColor=#3399FF;gradientColor=default;fontColor=#FFFFFF;" parent="E3p79ck7lgWa1YziOl5S-3" vertex="1">
          <mxGeometry x="535" y="50" width="255" height="200" as="geometry" />
        </mxCell>
        <mxCell id="E3p79ck7lgWa1YziOl5S-19" value="Bucket&lt;br&gt;(also stores Python script)" style="shape=dataStorage;whiteSpace=wrap;html=1;fixedSize=1;fillColor=#B266FF;fontColor=#FFFFFF;" parent="E3p79ck7lgWa1YziOl5S-7" vertex="1">
          <mxGeometry x="50" y="60" width="190" height="80" as="geometry" />
        </mxCell>
        <mxCell id="E3p79ck7lgWa1YziOl5S-11" value="BigQuery" style="swimlane;whiteSpace=wrap;html=1;strokeColor=#FFFFFF;strokeWidth=2;fillColor=#3399FF;gradientColor=default;fontColor=#FFFFFF;" parent="E3p79ck7lgWa1YziOl5S-3" vertex="1">
          <mxGeometry x="535" y="310" width="255" height="200" as="geometry" />
        </mxCell>
        <mxCell id="E3p79ck7lgWa1YziOl5S-18" value="Dataset" style="shape=dataStorage;whiteSpace=wrap;html=1;fixedSize=1;strokeColor=#FFFFFF;fillColor=#B266FF;fontColor=#FFFFFF;" parent="E3p79ck7lgWa1YziOl5S-11" vertex="1">
          <mxGeometry x="50" y="70" width="190" height="80" as="geometry" />
        </mxCell>
        <mxCell id="E3p79ck7lgWa1YziOl5S-14" style="edgeStyle=orthogonalEdgeStyle;rounded=0;orthogonalLoop=1;jettySize=auto;html=1;exitX=1;exitY=0.25;exitDx=0;exitDy=0;entryX=0;entryY=0.25;entryDx=0;entryDy=0;fillColor=#d5e8d4;strokeColor=#82b366;strokeWidth=3;" parent="E3p79ck7lgWa1YziOl5S-3" source="E3p79ck7lgWa1YziOl5S-4" target="E3p79ck7lgWa1YziOl5S-19" edge="1">
          <mxGeometry relative="1" as="geometry">
            <mxPoint x="525" y="130" as="targetPoint" />
          </mxGeometry>
        </mxCell>
        <mxCell id="E3p79ck7lgWa1YziOl5S-15" style="edgeStyle=orthogonalEdgeStyle;rounded=0;orthogonalLoop=1;jettySize=auto;html=1;exitX=0;exitY=0.75;exitDx=0;exitDy=0;entryX=0.25;entryY=1;entryDx=0;entryDy=0;strokeColor=#82b366;fillColor=#d5e8d4;strokeWidth=3;" parent="E3p79ck7lgWa1YziOl5S-3" source="E3p79ck7lgWa1YziOl5S-18" target="E3p79ck7lgWa1YziOl5S-4" edge="1">
          <mxGeometry relative="1" as="geometry">
            <mxPoint x="595" y="430" as="sourcePoint" />
          </mxGeometry>
        </mxCell>
        <mxCell id="E3p79ck7lgWa1YziOl5S-16" style="edgeStyle=orthogonalEdgeStyle;rounded=0;orthogonalLoop=1;jettySize=auto;html=1;exitX=0.75;exitY=1;exitDx=0;exitDy=0;entryX=0;entryY=0.25;entryDx=0;entryDy=0;fillColor=#d5e8d4;strokeColor=#82b366;strokeWidth=3;" parent="E3p79ck7lgWa1YziOl5S-3" source="E3p79ck7lgWa1YziOl5S-4" target="E3p79ck7lgWa1YziOl5S-18" edge="1">
          <mxGeometry relative="1" as="geometry">
            <mxPoint x="595" y="390" as="targetPoint" />
          </mxGeometry>
        </mxCell>
        <mxCell id="E3p79ck7lgWa1YziOl5S-17" style="edgeStyle=orthogonalEdgeStyle;rounded=0;orthogonalLoop=1;jettySize=auto;html=1;exitX=0;exitY=0.75;exitDx=0;exitDy=0;entryX=1;entryY=0.75;entryDx=0;entryDy=0;fillColor=#d5e8d4;strokeColor=#82b366;strokeWidth=3;" parent="E3p79ck7lgWa1YziOl5S-3" source="E3p79ck7lgWa1YziOl5S-19" target="E3p79ck7lgWa1YziOl5S-4" edge="1">
          <mxGeometry relative="1" as="geometry">
            <mxPoint x="595" y="170" as="sourcePoint" />
          </mxGeometry>
        </mxCell>
        <mxCell id="E3p79ck7lgWa1YziOl5S-25" value="Instantiates Workflow" style="edgeStyle=orthogonalEdgeStyle;rounded=0;orthogonalLoop=1;jettySize=auto;html=1;exitX=0.5;exitY=0;exitDx=0;exitDy=0;fillColor=#ffe6cc;strokeColor=#d79b00;strokeWidth=2;fontColor=#FFFFFF;labelBackgroundColor=none;" parent="E3p79ck7lgWa1YziOl5S-3" source="E3p79ck7lgWa1YziOl5S-20" edge="1">
          <mxGeometry x="-0.337" y="60" relative="1" as="geometry">
            <mxPoint x="230" y="360" as="targetPoint" />
            <mxPoint x="1" as="offset" />
          </mxGeometry>
        </mxCell>
        <mxCell id="E3p79ck7lgWa1YziOl5S-20" value="Cloud Scheduler" style="whiteSpace=wrap;html=1;aspect=fixed;fillColor=#FF8000;fontColor=#FFFFFF;" parent="E3p79ck7lgWa1YziOl5S-3" vertex="1">
          <mxGeometry x="190" y="450" width="80" height="80" as="geometry" />
        </mxCell>
        <mxCell id="E3p79ck7lgWa1YziOl5S-30" value="Dashboard" style="whiteSpace=wrap;html=1;aspect=fixed;fillColor=#004C99;fontColor=#FFFFFF;" parent="1" vertex="1">
          <mxGeometry x="960" y="470" width="80" height="80" as="geometry" />
        </mxCell>
        <mxCell id="E3p79ck7lgWa1YziOl5S-31" style="edgeStyle=orthogonalEdgeStyle;rounded=0;orthogonalLoop=1;jettySize=auto;html=1;exitX=1;exitY=0.5;exitDx=0;exitDy=0;fillColor=#d5e8d4;strokeColor=#82b366;strokeWidth=3;" parent="1" source="E3p79ck7lgWa1YziOl5S-18" edge="1">
          <mxGeometry relative="1" as="geometry">
            <mxPoint x="820" y="340" as="sourcePoint" />
            <mxPoint x="960" y="510" as="targetPoint" />
          </mxGeometry>
        </mxCell>
      </root>
    </mxGraphModel>
  </diagram>
</mxfile>
